PathFileType	4	(X/Y/Z)	C:\Users\Basilio\Documents\Thesis Gigler\squatting_fais\c3dfiles\038\SLS_front_pre2\markers_experimental.trc
DataRate	CameraRate	NumFrames	NumMarkers	Units	OrigDataRate	OrigDataStartFrame	OrigNumFrames
200.000000	200.000000	4	61	mm	200.000000	1197	1369
Frame#	Time	FHD			LBHD			RBHD			C7			T10			CLAV			LSHO			LUUPA			LMUPA			LDUPA			LLEP			LMEP			LUL			LRFIN			RSHO			RUPA1			RMUPA			RDUPA			RLEP			RMEP			RRAD			RUL			RUFIN			LASI			RASI			USACR			LSACR			RSACR			LTHI1			LTHI2			LTHI3			LTHI4			LLFC			LMFC			LTIB1			LTIB2			LTIB3			LTIB4			LLMAL			LMMAL			LHEE			LMT1			LMT2			LMT5			RTHI			RTHI2			RTHI3			RTHI4			RLFC			RMFC			RTIB1			RTIB2			RTIB3			RTIB4			RLMAL			RMMAL			RHEE			RMT1			RMT2			RMT5			LRAD			
		X1	Y1	Z1	X2	Y2	Z2	X3	Y3	Z3	X4	Y4	Z4	X5	Y5	Z5	X6	Y6	Z6	X7	Y7	Z7	X8	Y8	Z8	X9	Y9	Z9	X10	Y10	Z10	X11	Y11	Z11	X12	Y12	Z12	X13	Y13	Z13	X14	Y14	Z14	X15	Y15	Z15	X16	Y16	Z16	X17	Y17	Z17	X18	Y18	Z18	X19	Y19	Z19	X20	Y20	Z20	X21	Y21	Z21	X22	Y22	Z22	X23	Y23	Z23	X24	Y24	Z24	X25	Y25	Z25	X26	Y26	Z26	X27	Y27	Z27	X28	Y28	Z28	X29	Y29	Z29	X30	Y30	Z30	X31	Y31	Z31	X32	Y32	Z32	X33	Y33	Z33	X34	Y34	Z34	X35	Y35	Z35	X36	Y36	Z36	X37	Y37	Z37	X38	Y38	Z38	X39	Y39	Z39	X40	Y40	Z40	X41	Y41	Z41	X42	Y42	Z42	X43	Y43	Z43	X44	Y44	Z44	X45	Y45	Z45	X46	Y46	Z46	X47	Y47	Z47	X48	Y48	Z48	X49	Y49	Z49	X50	Y50	Z50	X51	Y51	Z51	X52	Y52	Z52	X53	Y53	Z53	X54	Y54	Z54	X55	Y55	Z55	X56	Y56	Z56	X57	Y57	Z57	X58	Y58	Z58	X59	Y59	Z59	X60	Y60	Z60	X61	Y61	Z61	

1198	5.985	-244.2618865966797	1784.8544921875	-1039.248046875	-396.8706054687501	1721.32763671875	-1098.007080078125	-385.8023376464845	1708.815063476563	-953.1592407226565	-427.8490600585939	1537.07861328125	-1021.428894042969	-402.6969604492189	1258.740844726563	-1015.925109863281	-283.8245239257813	1526.802856445313	-1037.101806640625	-357.1334838867188	1557.553833007813	-1176.963623046875	-198.5820007324219	1494.343872070313	-1312.560791015625	-169.7098236083985	1528.040893554688	-1287.16845703125	-129.7133178710938	1501.2578125	-1322.758422851563	-67.71714019775392	1502.75439453125	-1325.341674804688	-58.79886627197267	1428.295043945313	-1302.748657226563	228.5050659179688	1505.1787109375	-1306.3662109375	294.6538696289063	1521.759521484375	-1218.670776367188	-329.8995056152344	1549.852172851563	-890.5310668945315	-167.7253112792969	1520.538818359375	-778.6997680664065	-133.7776794433594	1531.364990234375	-811.149353027344	-99.29988098144534	1515.09033203125	-763.8313598632814	-26.50414085388184	1512.311767578125	-756.0085449218751	-20.52624320983887	1436.05517578125	-778.0086669921877	251.8924560546876	1512.414428710938	-827.4822387695315	259.8317565917969	1524.297607421875	-758.4582519531251	331.1857299804688	1546.8984375	-829.8779296875002	-233.0085754394532	1065.939208984375	-1122.256225585938	-249.8802795410157	1089.265014648438	-871.5960083007815	-408.5420837402345	1124.958374023438	-1010.324340820313	-421.0518798828126	1095.028442382813	-1036.586791992188	-422.1244201660157	1098.054931640625	-980.1795043945315	-274.9920043945313	744.0128784179689	-1163.829223632813	-246.3109893798829	664.2681884765626	-1153.818359375	-200.0025787353516	669.2722167968751	-1132.373046875	-275.1383972167969	616.7562866210939	-1132.934326171875	-271.6968078613282	555.0312500000001	-1124.2021484375	-260.7948913574219	549.2714843750001	-1004.734741210938	-249.2010498046876	366.3053588867188	-1050.622314453125	-294.2160034179688	326.4138183593751	-1115.7646484375	-259.4101257324219	319.6117553710938	-1086.349487304688	-276.9020385742188	242.1946563720704	-1056.971923828125	-369.1352844238282	112.7999343872071	-1073.966186523438	-328.9605712890626	127.325309753418	-1004.296752929688	-416.7696838378907	93.33824920654298	-1017.952392578125	-216.4658355712891	47.74867630004884	-1018.430358886719	-210.3306274414063	45.62394332885743	-1069.353759765625	-257.3180236816407	32.83441162109376	-1113.973999023438	-301.1979370117188	819.1651611328127	-799.5911254882815	-265.2402343750001	762.5351562500001	-791.9532470703127	-232.4065551757813	763.2974853515626	-797.8237915039065	-294.9086608886719	682.3821411132814	-805.7170410156252	-281.3994750976563	547.7549438476564	-807.4730224609377	-282.7094421386719	540.0153808593751	-927.8377685546877	-243.9984283447266	369.4697265625001	-822.805114746094	-323.9764099121094	295.3357238769532	-782.0722656250002	-277.4726562500001	295.8262023925782	-791.5283203125002	-269.9096679687501	242.6406250000001	-817.5750732421877	-338.9960632324219	124.5013046264649	-780.772399902344	-309.5928039550782	128.7178192138672	-860.183288574219	-400.5142517089845	87.25304412841798	-842.842712402344	-187.5513000488282	49.62607955932619	-837.0545043945315	-189.0536346435547	48.59049224853517	-789.9425048828127	-233.527084350586	34.99412918090821	-745.8830566406251	222.1163177490235	1489.882690429688	-1234.921630859375	
1199	5.99	-243.8948211669922	1784.661010742188	-1038.731689453125	-396.3120727539064	1721.536254882813	-1097.378662109375	-385.1946411132814	1708.7900390625	-952.4631958007815	-427.5897827148439	1537.06103515625	-1020.665466308594	-402.1727600097657	1258.662231445313	-1015.057373046875	-283.6486206054688	1526.76171875	-1036.308959960938	-356.8588256835938	1557.346313476563	-1176.280883789063	-198.3052825927735	1494.051635742188	-1311.886474609375	-169.5099029541016	1527.750366210938	-1286.639038085938	-129.5083770751953	1500.927368164063	-1322.154052734375	-67.49999237060548	1502.33935546875	-1324.776123046875	-58.64762115478517	1427.93115234375	-1302.016357421875	228.7441711425782	1504.620727539063	-1305.88916015625	295.0057983398438	1521.178955078125	-1218.159301757813	-329.4920959472657	1549.746826171875	-889.8492431640627	-167.0191650390625	1520.4638671875	-777.9725341796877	-133.2476196289063	1531.119506835938	-810.4617309570315	-98.79743957519534	1514.98583984375	-763.2310791015626	-26.03321075439454	1512.1015625	-755.4561157226564	-20.11053657531739	1435.700439453125	-777.2145996093752	252.072738647461	1511.5390625	-826.9432373046877	260.3604125976563	1523.850219726563	-758.0201416015626	331.5738525390626	1546.344848632813	-829.609313964844	-232.4668426513672	1066.444458007813	-1121.610595703125	-249.4034118652344	1089.13232421875	-870.9456787109377	-408.1866760253907	1125.260375976563	-1009.87109375	-420.7634277343751	1095.042358398438	-1036.077270507813	-421.6468505859376	1098.030395507813	-979.5510253906252	-274.7391967773438	744.1381225585939	-1163.594970703125	-246.1216583251954	664.3500366210939	-1153.617553710938	-199.7723846435547	669.3650512695314	-1132.266479492188	-274.9878845214844	616.8953857421876	-1132.761840820313	-271.2588500976563	555.2905883789064	-1123.984130859375	-260.4208068847657	549.2419433593751	-1004.616149902344	-249.0696258544922	366.3114929199219	-1050.610107421875	-294.1760864257813	326.5245056152344	-1115.745849609375	-259.3892211914063	319.6470336914063	-1086.386108398438	-276.8912963867188	242.2400054931641	-1056.980102539063	-369.1158447265626	112.8389282226563	-1073.9150390625	-328.9485473632813	127.4111022949219	-1004.386108398438	-416.7870483398439	93.36501312255861	-1017.960266113281	-216.1812438964844	47.2615089416504	-1018.336364746094	-210.3259582519532	45.60499954223634	-1069.359130859375	-257.3326110839844	32.84185028076173	-1114.008422851563	-301.4995727539063	818.9177856445315	-799.3669433593752	-265.6423950195313	762.0515136718751	-791.637145996094	-232.6661529541016	762.8683471679689	-797.468933105469	-295.5153198242188	682.1387939453126	-805.4737548828127	-282.3874816894532	547.4593505859376	-807.260192871094	-283.6083068847657	539.7841186523439	-927.650329589844	-244.7921447753907	369.1991577148438	-822.645202636719	-324.3372192382813	295.1410827636719	-781.6468505859377	-278.3966979980469	295.3874511718751	-791.4793701171877	-270.6130065917969	242.2940216064454	-817.4282836914065	-339.2752990722657	124.1171798706055	-780.5015869140627	-310.0002136230469	128.3423004150391	-859.9957275390627	-400.700408935547	86.92625427246095	-842.6545410156252	-187.6119842529297	49.57012176513673	-836.9542236328127	-189.1765594482422	48.60982894897462	-789.8435668945315	-233.5589447021485	34.83882522583009	-745.6517944335939	222.2104492187501	1489.536376953125	-1234.368774414063	
1200	5.995	-243.4343872070313	1784.436645507813	-1038.031982421875	-395.8886108398439	1721.492919921875	-1096.612670898438	-384.6951293945314	1708.75732421875	-951.8776855468752	-427.306610107422	1536.933837890625	-1019.958740234375	-401.7213134765626	1258.6875	-1014.19140625	-283.4349365234376	1526.651123046875	-1035.590942382813	-356.6104431152344	1557.2392578125	-1175.547729492188	-198.0997467041016	1493.730102539063	-1311.2216796875	-169.3445739746094	1527.47216796875	-1285.993408203125	-129.2805938720703	1500.507568359375	-1321.53955078125	-67.28732299804689	1501.949462890625	-1324.083129882813	-58.38703918457033	1427.554443359375	-1301.320678710938	229.0395050048829	1504.140625	-1305.326171875	295.3166809082032	1520.532592773438	-1217.708374023438	-329.1119995117188	1549.7177734375	-889.1824951171877	-166.3580780029297	1520.2373046875	-777.1748657226565	-132.8318481445313	1530.9912109375	-809.8901367187502	-98.29126739501956	1514.825439453125	-762.5515747070314	-25.63179588317872	1511.985229492188	-754.9813842773439	-19.67194557189942	1435.497314453125	-776.5593872070315	252.4215850830079	1510.85546875	-826.5019531250002	260.8848876953126	1523.391479492188	-757.6028442382814	331.9233703613282	1545.4833984375	-829.0130615234377	-232.0165100097657	1066.585327148438	-1121.016723632813	-248.8907012939454	1088.866088867188	-870.3013305664065	-407.774627685547	1124.955322265625	-1009.1787109375	-420.3454895019532	1095.087158203125	-1035.427368164063	-421.4993591308595	1097.948608398438	-979.0621337890627	-274.4751586914063	744.2511596679689	-1163.28515625	-245.9833679199219	664.4766845703126	-1153.436645507813	-199.4940338134766	669.3625488281251	-1132.1123046875	-274.8595275878907	616.9517822265626	-1132.57177734375	-271.4268188476563	555.1036987304689	-1123.870361328125	-260.2407226562501	549.2778930664064	-1004.500915527344	-248.8905944824219	366.3956909179688	-1050.61474609375	-294.1918945312501	326.5604248046876	-1115.664672851563	-259.3455200195313	319.6587219238282	-1086.329467773438	-276.8546447753907	242.3077850341797	-1056.997192382813	-369.1161804199219	112.8677291870117	-1073.9501953125	-328.9320373535157	127.4332122802735	-1004.393249511719	-416.7361450195314	93.3825149536133	-1018.044982910156	-216.1658782958985	47.26153945922852	-1018.3525390625	-210.3233032226563	45.5991554260254	-1069.360107421875	-257.2972412109376	32.81986999511719	-1114.010986328125	-301.6148986816407	818.639587402344	-799.0809326171877	-265.8543395996094	761.6012573242189	-791.1301879882815	-233.1087036132813	762.3957519531251	-797.0152587890627	-295.9393615722657	681.9003906250001	-805.248962402344	-283.4159240722657	547.2323608398439	-807.001647949219	-284.4880676269532	539.5143432617189	-927.4536743164065	-245.7087402343751	369.0200195312501	-822.3564453125002	-325.1283874511719	294.7565917968751	-781.350280761719	-279.2242126464844	294.9826049804688	-791.275817871094	-271.3869934082032	242.1615447998047	-817.152038574219	-339.5853576660157	123.650505065918	-780.3455200195315	-310.3905944824219	128.1386260986328	-859.8606567382815	-400.8183898925782	86.65596008300783	-842.5776977539065	-187.6345825195313	49.5917434692383	-836.8603515625002	-189.2247772216797	48.59428024291994	-789.7348632812502	-233.6461639404297	34.78924560546876	-745.5048828125001	222.3046569824219	1489.111450195313	-1233.519897460938	
1201	6	-242.7252349853516	1784.260620117188	-1037.375	-395.6667480468751	1721.170288085938	-1095.914184570313	-384.1791992187501	1708.764404296875	-951.2797851562502	-426.9882812500001	1536.823974609375	-1019.141784667969	-401.7034606933595	1258.501586914063	-1013.498657226563	-283.1284179687501	1526.605346679688	-1035	-356.2066955566407	1557.191040039063	-1174.902587890625	-197.8445892333985	1493.418823242188	-1310.62060546875	-169.1128082275391	1527.116333007813	-1285.370361328125	-129.1018218994141	1500.134399414063	-1320.925903320313	-67.47428131103517	1501.964965820313	-1323.525756835938	-58.22111129760744	1427.304809570313	-1300.786987304688	229.1580505371094	1503.522094726563	-1304.753784179688	295.6027832031251	1519.781494140625	-1217.172729492188	-328.7193298339844	1549.624145507813	-888.3549804687502	-166.2137756347657	1519.88916015625	-776.6599121093752	-132.38818359375	1530.811889648438	-809.3067016601565	-97.8864440917969	1514.633666992188	-762.0649414062501	-25.12358474731446	1511.687255859375	-754.3326416015626	-19.52425765991211	1434.871215820313	-776.204040527344	252.8560638427735	1510.20361328125	-826.0320434570315	261.3869018554688	1522.970825195313	-757.1820678710939	332.4194030761719	1545.03466796875	-828.8999633789065	-231.6939544677735	1066.7353515625	-1120.405517578125	-248.482406616211	1088.601318359375	-869.6053466796877	-407.3099060058595	1124.948120117188	-1008.353576660156	-419.8640136718751	1095.072143554688	-1034.814208984375	-420.9294433593751	1097.89111328125	-978.4326782226565	-274.3482055664063	744.3591918945314	-1162.984741210938	-245.8217773437501	664.5408935546876	-1153.194091796875	-199.2893981933594	669.3930664062501	-1131.936157226563	-274.7572021484376	617.0104370117189	-1132.423706054688	-271.2471923828126	555.1389770507814	-1123.720092773438	-259.9854125976563	549.2468872070314	-1004.375183105469	-248.7924041748047	366.4099121093751	-1050.563110351563	-294.1310729980469	326.6962280273438	-1115.66943359375	-259.2872009277344	319.7336120605469	-1086.35546875	-276.7684326171876	242.3324584960938	-1057.048706054688	-369.0867309570313	112.9060134887696	-1073.880615234375	-328.8511962890626	127.4923934936524	-1004.386413574219	-416.7887573242189	93.40780639648439	-1017.968566894531	-216.3385009765626	47.55376434326173	-1018.393371582031	-210.3271942138672	45.59579467773438	-1069.376586914063	-257.3543701171876	32.75344848632813	-1114.043701171875	-301.7503967285157	818.4205322265627	-798.776306152344	-265.9548034667969	760.7639770507814	-790.6497192382815	-233.2334136962891	762.0736694335939	-796.599548339844	-296.3731689453126	681.6350708007814	-804.9976196289065	-284.4017333984376	546.9422607421876	-806.7175292968752	-285.3588867187501	539.2290039062501	-927.201354980469	-246.6985015869141	368.3305969238282	-822.283630371094	-325.7639160156251	294.3457336425782	-781.1105957031252	-279.7119140625001	294.6484375000001	-791.1265258789065	-271.7780456542969	242.0310974121094	-817.1226196289065	-339.9378967285157	123.2911911010742	-780.383972167969	-310.6449279785157	127.7563400268555	-859.825866699219	-400.8246459960939	86.29702758789064	-842.537536621094	-187.6347198486328	49.58645629882814	-836.8094482421877	-189.2496185302735	48.59180068969728	-789.6826782226565	-233.6763763427735	34.78718948364259	-745.4417724609376	222.6927185058594	1488.4482421875	-1232.646484375	
